<?xml version="1.0" encoding="UTF-8" standalone="no"?>
<!-- Created with Inkscape (http://www.inkscape.org/) -->
<svg
   xmlns:svg="http://www.w3.org/2000/svg"
   xmlns="http://www.w3.org/2000/svg"
   version="1.0"
   width="696.36487"
   height="657.9953"
   id="svg2"
   xml:space="preserve"><defs
     id="defs5"><clipPath
       id="clipPath17"><path
         d="M 593.704,840.75 L 1.296,840.75 L 1.296,0.25 L 593.704,0.25 L 593.704,840.75 z"
         id="path19" /></clipPath><clipPath
       id="clipPath57"><path
         d="M 1.2959,840.75 L 593.1889,840.75 L 593.1889,5.122 L 1.2959,5.122 L 1.2959,840.75 z"
         id="path59" /></clipPath></defs><g
     transform="matrix(1.25,0,0,-1.25,-9.0870126,810.97598)"
     id="g11"><g
       id="g25"><path
         d="M 286.39944,501.23972 C 313.20328,493.83994 333.18873,490.35168 333.18873,490.35168 C 321.69139,501.85365 311.40334,513.6812 302.49663,524.86692 C 318.05429,546.86625 330.31439,562.08905 330.31439,562.08905 C 313.80791,558.4473 298.19908,553.96371 284.23671,549.38245 C 270.96735,568.44235 263.68384,581.86518 263.68384,581.86518 C 259.80491,567.55399 257.93054,553.2149 257.30264,539.75949 C 235.13123,531.17835 221.26653,524.15065 221.26653,524.15065 C 233.26151,518.75081 245.70764,514.03004 257.76309,509.97434 C 259.71652,484.08676 264.94892,466.1152 264.94892,466.1152 C 271.66966,478.12415 279.05548,490.06331 286.39944,501.23972"
         id="path71"
         style="fill:#231f20;fill-opacity:1;fill-rule:nonzero;stroke:none" /><path
         d="M 408.74923,508.02557 C 405.10283,502.31876 399.52624,498.24447 393.00552,495.38874 C 392.11251,513.69517 389.3126,529.89002 389.3126,529.89002 C 383.74533,514.84861 377.82923,501.50483 372.11777,489.98426 C 352.47651,487.4541 333.18873,490.35168 333.18873,490.35168 C 343.7698,477.66368 351.98351,470.14299 358.63446,465.05943 C 348.68593,448.29249 341.46754,439.33461 341.46754,439.33461 C 355.38805,442.52057 366.43888,447.79948 375.23395,454.0644 C 378.83386,451.59006 381.93144,448.83666 384.98715,444.16238 C 384.98715,444.16238 390.66139,452.2133 392.60553,470.84529 C 406.66557,489.23078 408.74923,508.02557 408.74923,508.02557"
         id="path73"
         style="fill:#231f20;fill-opacity:1;fill-rule:nonzero;stroke:none" /><path
         d="M 402.33082,558.76821 C 396.06589,572.85616 387.04291,583.4791 377.20135,591.4928 C 368.8016,609.11554 359.15072,617.25946 359.15072,617.25946 C 359.96465,613.19913 359.34608,608.60857 357.8438,603.86918 C 336.94209,614.23165 317.88221,615.66883 317.88221,615.66883 C 330.02138,607.71091 340.7978,597.85076 350.05333,587.67897 C 341.528,573.80031 330.31439,562.08905 330.31439,562.08905 C 345.17906,565.43778 357.14148,566.85169 366.71329,567.1075 C 381.39192,546.88021 389.3126,529.89002 389.3126,529.89002 C 389.59166,543.56402 388.22427,555.48924 385.94991,565.7866 C 398.37279,563.40994 402.33082,558.76821 402.33082,558.76821"
         id="path75"
         style="fill:#231f20;fill-opacity:1;fill-rule:nonzero;stroke:none" /><path
         d="M 317.88221,615.66883 C 307.74298,620.76634 298.0456,624.31972 289.01797,626.76151 C 300.50599,636.47285 311.18473,638.93788 311.18473,638.93788 C 292.74343,639.67275 276.87414,636.33797 263.60943,631.22649 C 243.78213,632.81248 231.1546,629.37538 231.1546,629.37538 C 234.1266,627.14289 236.62886,623.14301 239.19622,618.35246 C 222.44324,606.89233 213.93187,594.93921 213.93187,594.93921 C 224.03389,599.94371 234.74518,603.7529 245.31232,606.64584 C 246.46577,604.53427 247.67504,602.41341 249.00521,600.35301 C 255.99571,589.46495 263.68384,581.86518 263.68384,581.86518 C 266.41864,594.92061 271.13478,605.0831 276.57183,612.97122 C 300.13856,616.24555 317.88221,615.66883 317.88221,615.66883"
         id="path77"
         style="fill:#231f20;fill-opacity:1;fill-rule:nonzero;stroke:none" /><path
         d="M 190.61164,575.45609 C 196.92773,581.56752 204.61122,588.14407 213.93187,594.93921 C 213.93187,594.93921 205.35072,594.93921 196.25798,592.62766 C 202.2671,607.1714 208.93201,615.24092 208.93201,615.24092 C 208.93201,615.24092 170.67271,588.0278 163.41246,539.13624 C 163.41246,539.13624 166.62631,547.96854 177.51902,561.31698 C 181.85377,551.6196 186.8257,545.5128 186.8257,545.5128 C 186.90477,556.6706 188.41635,566.70752 190.61164,575.45609"
         id="path79"
         style="fill:#231f20;fill-opacity:1;fill-rule:nonzero;stroke:none" /><path
         d="M 221.26653,524.15065 C 207.98786,523.72742 197.57887,522.57397 189.46748,521.09029 C 187.18384,535.2945 186.8257,545.5128 186.8257,545.5128 C 180.27242,535.50381 176.03069,525.85759 173.40286,516.86716 C 164.14733,513.43934 161.82646,510.11853 161.82646,510.11853 C 163.26363,505.19309 166.14726,500.40253 169.78902,495.9143 C 168.64952,474.62192 175.53769,460.56189 175.53769,460.56189 C 177.08647,468.02212 180.17474,475.27771 184.05369,482.06821 C 195.37894,472.99406 206.5972,467.06866 206.5972,467.06866 C 201.31364,476.54744 197.42073,487.15178 194.56501,497.42587 C 207.26695,513.36958 221.26653,524.15065 221.26653,524.15065"
         id="path81"
         style="fill:#231f20;fill-opacity:1;fill-rule:nonzero;stroke:none" /><path
         d="M 286.95756,415.41441 C 286.95756,415.41441 275.82301,419.85614 259.87466,428.84656 C 260.43278,438.43698 261.92111,450.6366 264.94892,466.1152 C 264.94892,466.1152 252.27489,453.5807 235.86143,443.86006 C 226.34078,450.43196 216.32249,458.17126 206.5972,467.06866 C 206.5972,467.06866 211.33194,452.4412 220.4526,436.33936 C 211.79239,433.10225 202.87173,431.59997 194.71384,433.59526 C 194.71384,433.59526 204.35076,421.56306 234.07544,416.4516 C 242.32635,406.67979 252.35861,398.59632 264.08383,395.78245 C 264.08383,395.78245 260.5537,399.66605 259.76768,414.20514 C 267.87907,414.08887 276.91135,414.44234 286.95756,415.41441"
         id="path83"
         style="fill:#231f20;fill-opacity:1;fill-rule:nonzero;stroke:none" /><path
         d="M 340.83966,416.64228 C 343.38841,428.40006 341.46754,439.33461 341.46754,439.33461 C 333.95614,428.51634 326.56566,420.28868 319.72402,414.01446 C 301.31992,413.06564 286.95756,415.41441 286.95756,415.41441 C 286.95756,415.41441 295.17591,407.20536 304.6454,402.47061 C 292.13879,394.73597 283.75767,394.05226 283.75767,394.05226 C 338.50485,392.8895 371.35966,428.62796 371.35966,428.62796 C 362.13668,422.53978 351.45328,418.82825 340.83966,416.64228"
         id="path85"
         style="fill:#231f20;fill-opacity:1;fill-rule:nonzero;stroke:none" /><path
         d="M 226.44775,271.00483 C 240.2892,286.85551 260.64673,296.86451 283.34372,296.86451 C 306.67324,296.86451 327.55169,286.27414 341.40243,269.64207 L 345.06743,273.06989 C 330.30974,290.62284 308.18483,301.77599 283.4507,301.77599 C 259.3584,301.77599 237.74044,291.19492 222.98741,274.42333 L 226.44775,271.00483"
         id="path87"
         style="fill:#231f20;fill-opacity:1;fill-rule:nonzero;stroke:none" /><path
         d="M 276.8881,311.03618 L 254.78179,306.44562 L 249.21917,333.21689 L 271.02317,337.747 L 272.05103,332.84016 L 257.71658,329.85885 L 258.87934,324.24508 L 272.55334,327.08684 L 273.57192,322.17537 L 259.90723,319.33825 L 261.2374,312.90123 L 275.87882,315.943 L 276.8881,311.03618"
         id="path89"
         style="fill:#231f20;fill-opacity:1;fill-rule:nonzero;stroke:none" /><path
         d="M 319.07287,328.31472 L 305.89188,331.09138 L 304.63145,325.12876 L 317.81709,322.35211 L 316.78922,317.45459 L 303.59892,320.23125 L 301.28272,309.25019 L 293.81318,310.82688 L 299.46416,337.57025 L 320.0961,333.21689 L 319.07287,328.31472"
         id="path91"
         style="fill:#231f20;fill-opacity:1;fill-rule:nonzero;stroke:none" /><path
         d="M 348.68593,311.8129 L 338.63972,305.4596 L 346.61157,299.91557 L 348.68593,311.8129 z M 350.93238,282.55797 L 344.38374,288.75312 L 345.41626,294.62273 L 334.16543,302.44573 L 329.19814,299.31095 L 321.74721,303.46431 L 348.2999,319.31964 L 355.5648,314.25933 L 350.93238,282.55797"
         id="path93"
         style="fill:#231f20;fill-opacity:1;fill-rule:nonzero;stroke:none" /><path
         d="M 229.47094,293.52042 C 224.5641,289.63681 216.26203,286.46018 210.17384,293.59949 L 201.40201,304.86426 L 207.27161,309.47808 L 215.8853,298.41794 C 218.98753,294.76225 222.89903,295.4692 226.00126,297.91564 C 229.11745,300.35743 230.70345,303.99452 227.87563,307.87813 L 219.25728,318.92895 L 225.12223,323.55208 L 233.8894,312.29659 C 239.1311,305.09682 235.89864,298.62259 229.47094,293.52042"
         id="path95"
         style="fill:#231f20;fill-opacity:1;fill-rule:nonzero;stroke:none" /><path
         d="M 377.83854,309.26413 C 354.29041,334.03083 321.01699,349.46756 284.13439,349.46756 C 246.81459,349.46756 213.18304,333.66805 189.57911,308.37115 L 185.59784,312.42683 C 210.37848,338.37487 245.33091,354.54649 284.04137,354.54649 C 322.45416,354.54649 357.14148,338.63999 381.89422,313.05007 L 377.83854,309.26413"
         id="path97"
         style="fill:#231f20;fill-opacity:1;fill-rule:nonzero;stroke:none" /><path
         d="M 403.368,248.39155 C 393.18226,248.39155 390.14049,238.68487 390.14049,232.11763 C 390.14049,222.50397 394.41477,208.44859 406.16791,208.44859 C 414.54905,208.44859 419.41402,215.92278 419.41402,224.88993 C 419.41402,234.41988 415.71181,248.39155 403.368,248.39155 z M 404.2796,200.56045 C 387.92196,200.56045 377.97806,214.29026 377.97806,229.32236 C 377.97806,244.9405 389.56842,256.27504 404.68888,256.27504 C 421.46048,256.27504 431.57179,242.96381 431.57179,228.33169 C 431.57179,210.99735 419.00007,200.5558 404.2796,200.56045"
         id="path99"
         style="fill:#231f20;fill-opacity:1;fill-rule:nonzero;stroke:none" /><path
         d="M 304.10123,208.36486 C 304.10123,205.40681 304.67796,204.33708 309.44526,203.43012 L 309.44526,201.37437 C 304.26402,201.62553 301.05946,201.86739 298.01769,201.86739 C 294.97128,201.86739 291.77137,201.62553 288.15287,201.37437 L 288.15287,203.43012 C 291.36208,204.0115 291.93416,205.40681 291.93416,209.27182 L 291.93416,249.45665 C 291.93416,251.76355 290.94815,252.82863 288.15287,252.91236 L 288.15287,255.196 L 312.48702,255.196 C 327.69587,255.196 333.20732,247.95901 333.20732,238.43837 C 333.19803,228.23867 325.46803,221.99701 314.86834,221.99701 C 310.84522,221.99701 304.92445,224.04811 304.92445,225.76898 C 304.92445,226.5085 305.41282,226.5085 306.15697,226.5085 C 306.89649,226.5085 307.96623,226.262 309.03131,226.262 C 317.65431,226.262 321.03095,231.11301 321.03095,237.93606 C 321.03095,245.33118 316.42644,247.95901 309.19409,247.95901 L 304.10123,247.4288 L 304.10123,208.36486"
         id="path101"
         style="fill:#231f20;fill-opacity:1;fill-rule:nonzero;stroke:none" /><path
         d="M 349.08592,249.94964 C 349.08592,252.25656 348.09526,253.32629 345.29069,253.40536 L 345.29069,255.55413 C 348.91848,255.30298 352.12303,255.06112 355.16945,255.06112 C 358.21122,255.06112 361.41578,255.30298 365.02032,255.55413 L 365.02032,253.40536 C 362.23436,253.32629 361.24369,252.25656 361.24369,249.94964 L 361.24369,206.88583 C 361.24369,204.58823 362.22971,203.5185 365.02032,203.43012 L 365.02032,201.37437 C 361.40647,201.62087 358.20192,201.86273 355.16945,201.86739 C 352.12303,201.86739 348.91848,201.62087 345.29069,201.37437 L 345.29069,203.43012 C 348.09526,203.5185 349.08592,204.58823 349.08592,206.88583 L 349.08592,249.94964"
         id="path103"
         style="fill:#231f20;fill-opacity:1;fill-rule:nonzero;stroke:none" /><path
         d="M 448.04106,250.00081 C 448.04106,252.30771 447.05505,253.3635 444.26443,253.45651 L 444.26443,255.6053 C 447.87827,255.34948 451.08284,255.11228 454.12924,255.09833 C 456.34779,255.09833 458.81284,255.09833 461.36158,255.6053 L 484.03998,218.84827 L 484.20741,218.84827 L 484.20741,248.85201 C 484.20741,253.11698 481.50517,253.45187 479.27733,253.45187 L 479.27733,255.59134 C 481.98422,255.34948 484.6167,255.09833 487.16546,255.09833 C 489.8863,255.09833 492.59785,255.34948 495.22569,255.59134 L 495.22569,253.45187 C 492.43041,253.3635 491.43975,252.30771 491.43975,250.00081 L 491.43975,201.36973 L 482.72374,201.36973 L 455.44548,243.83821 L 455.27339,243.83821 L 455.27339,208.0765 C 455.27339,203.80685 457.99891,203.47664 460.20349,203.47664 L 460.20349,201.41624 C 457.49193,201.66274 454.86411,201.90925 452.31069,201.90925 C 449.6038,201.90925 446.89226,201.66274 444.26443,201.41624 L 444.26443,203.47664 C 447.05505,203.5557 448.04106,204.62544 448.04106,206.93236 L 448.04106,250.00081"
         id="path105"
         style="fill:#231f20;fill-opacity:1;fill-rule:nonzero;stroke:none" /><path
         d="M 512.03913,220.06684 C 513.71814,210.8392 519.77844,206.53701 528.83861,206.53701 C 533.81986,206.53701 541.01499,207.96488 541.01499,214.31352 C 541.01499,219.38313 535.76399,220.74588 531.87574,221.92725 L 525.86661,223.70393 C 517.24362,226.23408 508.60667,229.88049 508.60667,239.86158 C 508.60667,252.97747 521.29467,256.94945 533.90823,256.94945 C 539.23831,256.94945 544.74511,256.02388 549.65193,254.24719 C 549.65193,248.1497 549.97752,242.98707 550.32169,238.5965 L 548.20547,238.5965 C 546.42414,246.37767 540.08479,250.0101 532.47106,250.0101 C 528.24794,250.0101 521.12721,248.66131 521.12721,242.82428 C 521.12721,238.16861 525.19221,236.81981 528.66188,235.80589 L 537.54069,233.26178 C 546.1032,230.8107 554.05181,227.67126 554.05181,216.68089 C 554.05181,205.51378 542.79168,199.58838 529.00141,199.58838 C 522.82019,199.58838 516.31342,200.60696 510.62986,202.6348 C 510.62986,209.31832 510.37405,215.16 509.96942,220.06684 L 512.03913,220.06684"
         id="path107"
         style="fill:#231f20;fill-opacity:1;fill-rule:nonzero;stroke:none" /><path
         d="M 84.661356,249.95895 C 84.661356,252.26121 83.67534,253.33094 80.889378,253.41932 L 80.889378,255.55878 C 84.503222,255.31693 87.703124,255.06577 90.744893,255.06577 C 93.791313,255.06577 97.000518,255.31693 100.60971,255.55878 L 100.60971,253.41932 C 97.823749,253.33094 96.833081,252.26121 96.833081,249.95895 L 96.833081,233.68038 L 116.73015,233.68038 L 116.73015,249.95895 C 116.73015,252.26121 115.73949,253.33094 112.93492,253.41932 L 112.93492,255.55878 C 116.55342,255.31693 119.77193,255.06577 122.79974,255.06577 C 125.8415,255.06577 129.05071,255.31693 132.66455,255.55878 L 132.66455,253.40536 C 129.87859,253.33094 128.88793,252.26121 128.88793,249.95895 L 128.87397,206.88583 C 128.87397,204.58823 129.87859,203.5185 132.66455,203.43012 L 132.66455,201.33717 C 129.05071,201.57901 125.8415,201.83017 122.79974,201.83017 C 119.77193,201.83017 116.55342,201.57901 112.93492,201.33717 L 112.93492,203.43012 C 115.73949,203.5185 116.73015,204.58823 116.73015,206.88583 L 116.73015,225.79224 L 96.833081,225.79224 L 96.833081,206.88583 C 96.833081,204.58823 97.809795,203.5185 100.60971,203.43012 L 100.60971,201.33717 C 96.986565,201.57901 93.791313,201.83017 90.744893,201.83017 C 87.703124,201.83017 84.489268,201.57901 80.880075,201.33717 L 80.880075,203.43012 C 83.67534,203.5185 84.661356,204.58823 84.661356,206.88583 L 84.661356,249.95895"
         id="path109"
         style="fill:#231f20;fill-opacity:1;fill-rule:nonzero;stroke:none" /><path
         d="M 143.18982,201.37437 C 146.0688,201.62553 148.86406,201.86739 151.7384,201.86739 C 154.53365,201.86739 157.41729,201.62553 160.20791,201.37437 L 160.20791,203.43012 C 157.49636,203.59757 156.33826,204.58823 156.33826,206.06725 C 156.33826,206.88583 156.58942,207.78814 156.9987,208.94158 L 160.61719,218.63431 L 176.64928,218.63431 L 179.2771,210.66712 C 179.69569,209.59739 180.10033,207.70906 180.10033,206.55561 C 180.10033,204.6673 179.0306,204.0115 175.98417,203.43012 L 175.98417,201.37437 C 179.5236,201.62553 183.05838,201.86739 186.58385,201.86739 C 190.04421,201.86739 193.57899,201.62553 197.0254,201.37437 L 197.0254,203.43012 C 194.56501,204.09522 193.33714,205.1603 192.09531,208.7788 L 176.97019,255.55878 C 174.42608,255.31693 171.78896,255.06577 169.25415,255.06577 C 166.70539,255.06577 164.14733,255.31693 161.52414,255.55878 L 161.52414,253.40536 C 163.74268,253.40536 164.64963,252.08912 164.64963,251.27519 C 164.64963,250.45661 164.07756,249.29851 163.5799,248.07065 L 147.47341,207.22071 C 146.64553,205.08125 145.5758,203.76501 143.18982,203.43012 L 143.18982,201.37437 z M 163.08689,224.88993 C 165.22636,230.72697 167.85884,237.21514 169.73785,243.79634 L 169.90994,243.79634 C 171.55176,235.48962 172.9424,230.23397 174.67258,224.88993 L 163.08689,224.88993"
         id="path111"
         style="fill:#231f20;fill-opacity:1;fill-rule:nonzero;stroke:none" /><path
         d="M 213.61559,242.2336 C 213.69467,244.53121 213.86675,246.83812 213.86675,250.11243 C 213.86675,252.67516 213.29003,252.99141 210.16918,253.40536 L 210.16918,255.55878 C 212.62957,255.31693 215.58763,255.06577 218.55498,255.06577 C 221.51303,255.06577 224.47573,255.31693 227.41983,255.55878 L 241.81939,217.44832 L 254.71203,255.55878 C 257.59566,255.30298 260.39557,255.06577 263.2606,255.06577 C 266.14424,255.06577 269.02323,255.30298 271.81849,255.55878 L 271.81849,253.40536 C 268.93484,253.1635 268.53021,252.25656 268.53021,250.03803 C 268.53021,247.74507 268.85113,244.03821 269.10227,241.24293 L 271.72547,206.14632 C 271.90685,204.0115 274.28352,203.68127 275.92534,203.43012 L 275.92534,201.37437 C 272.39056,201.62553 268.77207,201.86739 265.23264,201.86739 C 261.61414,201.86739 258.09332,201.62553 254.71203,201.37437 L 254.71203,203.43012 C 258.73516,203.93245 259.81419,204.6673 259.81419,208.44859 C 259.81419,210.42062 259.56305,214.12282 259.32585,216.82972 L 257.42822,241.32666 L 257.26544,241.32666 L 243.54493,200.92322 L 236.62886,200.92322 L 220.94096,241.81966 L 220.76887,241.81966 L 220.11773,217.73667 C 220.03401,213.46703 219.87122,211.2485 219.87122,209.02531 C 219.87122,204.91845 220.28517,204.0115 225.21525,203.43012 L 225.21525,201.37437 C 221.92697,201.62553 218.8759,201.86739 215.75972,201.86739 C 212.7226,201.86739 209.67153,201.62553 207.12277,201.37437 L 207.12277,203.43012 C 210.33196,203.68127 211.64821,204.42544 211.811,207.8765 L 213.61559,242.2336"
         id="path113"
         style="fill:#231f20;fill-opacity:1;fill-rule:nonzero;stroke:none" /><path
         d="M 68.503706,204.38358 C 62.862016,200.07674 54.797144,198.33726 49.532186,198.33726 C 29.942081,198.33726 18.867998,213.5461 18.867998,229.12237 C 18.867998,245.06608 29.942081,260.46561 51.164696,260.46561 C 58.615633,260.46561 63.945705,259.04705 66.034013,258.22382 C 66.034013,251.99145 66.378189,245.98232 66.829337,240.02437 L 64.457317,240.02437 C 63.001547,247.63344 57.699382,251.66587 50.076356,251.66587 C 39.732483,251.66587 31.751329,243.51264 31.751329,229.75957 C 31.751329,219.41104 40.285956,207.68582 52.248383,207.68582 C 57.33195,207.68582 64.65731,210.46712 69.540884,214.58793 L 68.503706,204.38358"
         id="path115"
         style="fill:#231f20;fill-opacity:1;fill-rule:nonzero;stroke:none" /><path
         d="M 157.47776,171.66365 C 157.47776,173.43569 156.71499,174.25892 154.56158,174.32404 L 154.56158,176.05887 C 157.35219,175.87281 159.82653,175.68212 162.17994,175.68212 C 164.85428,175.68212 168.70533,175.87281 170.55178,176.05887 L 170.55178,174.32404 C 167.31932,174.1938 166.86817,172.61711 166.86817,170.83111 L 166.86817,139.75764 L 178.6027,139.75764 C 182.79327,139.75764 184.50949,141.66455 185.58854,146.49231 L 187.63499,146.49231 C 186.87222,142.35756 186.17922,138.29256 186.11875,134.17641 L 154.56158,134.17641 L 154.56158,135.90194 C 156.71499,135.96705 157.47776,136.79029 157.47776,138.57627 L 157.47776,171.66365"
         id="path117"
         style="fill:#231f20;fill-opacity:1;fill-rule:nonzero;stroke:none" /><path
         d="M 197.86259,171.44506 C 197.86259,173.22173 197.10447,174.04032 194.94639,174.10543 L 194.94639,175.85421 L 227.01054,175.85421 C 227.08031,172.352 227.19658,169.52417 227.52215,166.08707 L 225.77802,166.08707 C 225.14548,169.58929 224.26178,170.78925 220.82934,170.78925 L 207.26695,170.78925 L 207.26695,158.52917 L 215.68995,158.52917 C 218.55033,158.52917 218.98753,159.48263 219.36892,161.76627 L 221.10374,161.76627 C 220.91304,160.17562 220.72236,157.44547 220.72236,155.72925 C 220.72236,154.01766 220.91304,151.22705 221.10374,149.70152 L 219.36892,149.70152 C 218.98753,151.98983 218.55033,152.93863 215.68995,152.93863 L 207.26695,152.93863 L 207.26695,139.75764 L 221.53164,139.75764 C 224.95943,139.75764 226.02918,140.89714 227.11286,146.23651 L 229.22907,146.23651 C 228.66166,141.02736 228.53143,137.66468 228.47096,134.17641 L 194.94639,134.17641 L 194.94639,135.90194 C 197.10447,135.96705 197.86259,136.79029 197.86259,138.57627 L 197.86259,171.44506"
         id="path119"
         style="fill:#231f20;fill-opacity:1;fill-rule:nonzero;stroke:none" /><path
         d="M 261.14439,152.40841 C 259.81419,156.52456 258.7305,160.58026 257.46078,166.97541 L 257.3352,166.97541 C 255.87479,161.9058 253.84229,156.90595 252.20048,152.40841 L 261.14439,152.40841 z M 236.8335,135.89728 C 238.67064,136.14844 239.49854,137.16237 240.14503,138.80417 L 252.57721,170.25904 C 252.96324,171.2032 253.39114,172.09154 253.39114,172.72874 C 253.39114,173.35661 252.70744,174.37054 250.99121,174.37054 L 250.99121,176.09607 C 253.01441,175.90537 254.98643,175.724 256.95847,175.724 C 258.9212,175.724 260.95836,175.90537 262.92108,176.09607 L 274.60445,140.00879 C 275.5486,137.23212 276.50207,136.4089 278.40433,135.89728 L 278.40433,134.17176 C 275.7486,134.35781 273.0138,134.54848 270.35341,134.54848 C 267.62327,134.54848 264.88847,134.35781 262.15831,134.17176 L 262.15831,135.89728 C 264.51638,136.33914 265.33496,136.85074 265.33496,138.29256 C 265.33496,139.18091 265.01403,140.63668 264.69777,141.46455 L 262.66993,147.59927 L 250.28889,147.59927 L 247.49829,140.13438 C 247.17738,139.25068 246.99133,138.54836 246.99133,137.92049 C 246.99133,136.78564 247.87503,136.02751 249.97729,135.89728 L 249.97729,134.17176 C 247.82852,134.35781 245.59602,134.54848 243.4333,134.54848 C 241.21942,134.54848 239.05204,134.35781 236.8335,134.17176 L 236.8335,135.89728"
         id="path121"
         style="fill:#231f20;fill-opacity:1;fill-rule:nonzero;stroke:none" /><path
         d="M 312.36145,149.00387 C 312.36145,151.54798 311.21265,151.6782 308.36157,151.72936 L 308.36157,153.85953 C 310.95684,153.65488 313.56141,153.46421 316.23574,153.46421 C 319.08682,153.46421 321.87743,153.65488 324.73315,153.85953 L 324.73315,151.86425 C 322.51462,151.79913 321.37048,151.23171 321.37048,148.36668 L 321.37048,134.17176 L 317.68221,134.17176 L 316.23574,138.41814 C 312.23122,134.66942 308.04065,133.34388 303.71984,133.34388 C 291.78532,133.34388 284.1716,143.18078 284.1716,154.60369 C 284.1716,168.38002 293.37597,176.7193 307.08253,176.7193 C 311.46844,176.7193 316.18458,175.89143 319.59843,173.76126 C 319.59843,170.64042 319.72867,167.07309 319.98447,162.68718 L 318.16127,162.68718 C 317.33338,168.33352 311.98007,171.11947 306.70115,171.11947 C 297.88746,171.11947 293.56667,164.38015 293.56667,156.18969 C 293.56667,148.32482 298.01769,139.43206 305.37561,139.43206 C 309.88709,139.43206 312.36145,141.52967 312.36145,144.44586 L 312.36145,149.00387"
         id="path123"
         style="fill:#231f20;fill-opacity:1;fill-rule:nonzero;stroke:none" /><path
         d="M 337.48161,171.66365 C 337.48161,173.43569 336.72814,174.25892 334.57473,174.32404 L 334.57473,176.05887 C 336.60722,175.87281 339.2025,175.68212 341.86753,175.68212 C 345.16511,175.68212 347.76502,175.87281 350.31379,176.05887 L 350.31379,174.32404 C 347.58364,174.1938 346.88597,173.68684 346.88597,171.21715 L 346.88597,147.50159 C 346.88597,140.32506 349.86728,138.92509 355.01132,138.92509 C 360.15535,138.92509 363.13664,140.45529 363.13664,147.50159 L 363.13664,171.21715 C 363.13664,173.68684 362.43899,174.1938 359.70886,174.32404 L 359.70886,176.05887 C 362.24831,175.87281 364.84358,175.68212 368.1551,175.68212 C 370.81084,175.68212 373.41541,175.87281 375.44791,176.05887 L 375.44791,174.32404 C 373.28984,174.25892 372.52707,173.43569 372.52707,171.66365 L 372.52707,148.82247 C 372.52707,137.08329 366.43423,133.34388 355.01132,133.34388 C 343.5791,133.34388 337.48161,137.08329 337.48161,147.94343 L 337.48161,171.66365"
         id="path125"
         style="fill:#231f20;fill-opacity:1;fill-rule:nonzero;stroke:none" /><path
         d="M 388.88006,171.44506 C 388.88006,173.22173 388.1173,174.04032 385.96388,174.10543 L 385.96388,175.85421 L 418.02802,175.85421 C 418.07918,172.352 418.21871,169.52417 418.53497,166.08707 L 416.80015,166.08707 C 416.15366,169.58929 415.28391,170.78925 411.84215,170.78925 L 398.27047,170.78925 L 398.27047,158.7152 L 406.71208,158.7152 C 409.55385,158.7152 410.00965,159.664 410.39104,161.95231 L 412.12122,161.95231 C 411.93518,160.36631 411.74913,157.63616 411.74913,155.92924 C 411.74913,154.20836 411.93518,151.41775 412.12122,149.89222 L 410.39104,149.89222 C 410.00965,152.17586 409.55385,153.12932 406.71208,153.12932 L 398.27047,153.12932 L 398.27047,139.75764 L 412.54911,139.75764 C 415.97226,139.75764 417.05594,140.89714 418.12569,146.23651 L 420.24191,146.23651 C 419.66983,141.02736 419.54425,137.66468 419.47913,134.17641 L 385.96388,134.17641 L 385.96388,135.90194 C 388.1173,135.96705 388.88006,136.79029 388.88006,138.57627 L 388.88006,171.44506"
         id="path127"
         style="fill:#231f20;fill-opacity:1;fill-rule:nonzero;stroke:none" /></g></g></svg>